G75*
%MOIN*%
%OFA0B0*%
%FSLAX25Y25*%
%IPPOS*%
%LPD*%
%AMOC8*
5,1,8,0,0,1.08239X$1,22.5*
%
%ADD10OC8,0.06300*%
%ADD11C,0.06300*%
%ADD12OC8,0.05200*%
%ADD13C,0.06600*%
%ADD14C,0.07800*%
%ADD15C,0.06600*%
%ADD16C,0.05200*%
%ADD17C,0.04000*%
D10*
X0134333Y0075000D03*
X0209333Y0103000D03*
X0249333Y0103000D03*
X0294333Y0143000D03*
X0329333Y0143000D03*
X0104333Y0290000D03*
D11*
X0104333Y0276000D03*
X0294333Y0133000D03*
X0329333Y0133000D03*
X0249333Y0113000D03*
X0209333Y0113000D03*
X0134333Y0061000D03*
D12*
X0084333Y0058000D03*
X0084333Y0078000D03*
X0124333Y0128000D03*
X0164333Y0128000D03*
X0184333Y0128000D03*
X0184333Y0118000D03*
X0209333Y0168000D03*
X0249333Y0168000D03*
X0294333Y0168000D03*
X0334333Y0168000D03*
X0164333Y0258000D03*
X0164333Y0268000D03*
X0144333Y0228000D03*
X0104333Y0228000D03*
X0064333Y0278000D03*
X0064333Y0298000D03*
D13*
X0084333Y0193000D03*
X0084333Y0168000D03*
X0124333Y0168000D03*
X0144333Y0168000D03*
X0144333Y0193000D03*
X0124333Y0193000D03*
X0184333Y0193000D03*
X0184333Y0168000D03*
D14*
X0028233Y0163000D02*
X0020433Y0163000D01*
X0020433Y0143300D02*
X0028233Y0143300D01*
X0028233Y0182700D02*
X0020433Y0182700D01*
X0385433Y0177700D02*
X0393233Y0177700D01*
X0393233Y0158000D02*
X0385433Y0158000D01*
X0385433Y0138300D02*
X0393233Y0138300D01*
D15*
X0314333Y0214700D02*
X0314333Y0221300D01*
X0304333Y0221300D02*
X0304333Y0214700D01*
X0294333Y0214700D02*
X0294333Y0221300D01*
X0234333Y0221300D02*
X0234333Y0214700D01*
X0224333Y0214700D02*
X0224333Y0221300D01*
X0214333Y0221300D02*
X0214333Y0214700D01*
D16*
X0214333Y0080600D02*
X0214333Y0075400D01*
X0204333Y0060600D02*
X0204333Y0055400D01*
X0194333Y0075400D02*
X0194333Y0080600D01*
X0244333Y0080600D02*
X0244333Y0075400D01*
X0264333Y0075400D02*
X0264333Y0080600D01*
X0254333Y0060600D02*
X0254333Y0055400D01*
X0294333Y0075400D02*
X0294333Y0080600D01*
X0314333Y0080600D02*
X0314333Y0075400D01*
X0304333Y0060600D02*
X0304333Y0055400D01*
X0344333Y0075400D02*
X0344333Y0080600D01*
X0364333Y0080600D02*
X0364333Y0075400D01*
X0354333Y0060600D02*
X0354333Y0055400D01*
D17*
X0214333Y0198000D02*
X0184333Y0168000D01*
X0214333Y0198000D02*
X0289333Y0198000D01*
X0304333Y0213000D01*
X0304333Y0218000D01*
X0124333Y0168000D02*
X0124333Y0128000D01*
M02*
