%
M48
M72
T01C0.03200
T02C0.04400
T03C0.05200
T04C0.13000
%
T01
X84333Y58000
X84333Y78000
X134333Y75000
X134333Y61000
X194333Y78000
X214333Y78000
X204333Y58000
X244333Y78000
X264333Y78000
X254333Y58000
X294333Y78000
X314333Y78000
X304333Y58000
X344333Y78000
X364333Y78000
X354333Y58000
X329333Y133000
X329333Y143000
X334333Y168000
X294333Y168000
X294333Y143000
X294333Y133000
X249333Y113000
X249333Y103000
X209333Y103000
X209333Y113000
X184333Y118000
X184333Y128000
X164333Y128000
X124333Y128000
X209333Y168000
X249333Y168000
X144333Y228000
X164333Y258000
X164333Y268000
X104333Y276000
X104333Y290000
X64333Y298000
X64333Y278000
X104333Y228000
T02
X84333Y193000
X84333Y168000
X124333Y168000
X144333Y168000
X144333Y193000
X124333Y193000
X184333Y193000
X214333Y218000
X224333Y218000
X234333Y218000
X294333Y218000
X304333Y218000
X314333Y218000
X184333Y168000
T03
X24333Y163000
X24333Y143300
X24333Y182700
X389333Y177700
X389333Y158000
X389333Y138300
T04
X304333Y277000
X224333Y277000
M30
